<svg xmlns="http://www.w3.org/2000/svg" xmlns:xlink="http://www.w3.org/1999/xlink" viewBox="0 0 298.84 389.98"><defs><linearGradient id="aa99c879-4cda-4278-93ad-849e459d37aa" x1="47.47" y1="319.08" x2="104.13" y2="391.6" gradientUnits="userSpaceOnUse"><stop offset="0" stop-color="#8c8c8c"/><stop offset="0" stop-color="#735454"/><stop offset="1"/></linearGradient><linearGradient id="e4653ed3-a867-43f7-939c-a033f06829e3" x1="46.36" y1="335.93" x2="92.73" y2="395.27" gradientUnits="userSpaceOnUse"><stop offset="0" stop-color="#8c8c8c"/><stop offset="0" stop-color="#f2eb54"/><stop offset="1" stop-color="#d09700"/></linearGradient><linearGradient id="bebb93c2-caef-4ce4-821b-6c0e9de65f7a" x1="14.37" y1="340.44" x2="35.85" y2="367.94" xlink:href="#aa99c879-4cda-4278-93ad-849e459d37aa"/><linearGradient id="be10c47b-ef8c-4f91-b5a7-0ad9462a364a" x1="169.6" y1="303.95" x2="179.26" y2="316.33" xlink:href="#aa99c879-4cda-4278-93ad-849e459d37aa"/><radialGradient id="fc2d16bb-df82-47ee-b824-760ebfb8ed6d" cx="106.05" cy="318.63" r="70.7" gradientUnits="userSpaceOnUse"><stop offset="0.21"/><stop offset="1" stop-color="#545454"/><stop offset="1" stop-color="#8c8c8c"/></radialGradient><linearGradient id="b590379a-9eb7-4b61-a737-f0926a4dfa4d" x1="129.85" y1="23.11" x2="177.19" y2="83.69" gradientUnits="userSpaceOnUse"><stop offset="0" stop-color="#8c8c8c"/><stop offset="0" stop-color="#545454"/><stop offset="1"/></linearGradient><linearGradient id="a337af22-9c70-43bd-ac86-0bc2a6bac68d" x1="197.81" y1="75.41" x2="210.52" y2="75.41" gradientUnits="userSpaceOnUse"><stop offset="0"/><stop offset="0.06"/><stop offset="0.47"/><stop offset="1" stop-color="#292e57"/></linearGradient><linearGradient id="ba6dcf1f-b969-45f5-be76-d5daf4969eaa" x1="50.61" y1="181.46" x2="189.71" y2="181.46" xlink:href="#aa99c879-4cda-4278-93ad-849e459d37aa"/><linearGradient id="b86f70ce-be3f-49b0-a3fa-a6f05dd67265" x1="0.33" y1="195.73" x2="198.01" y2="195.73" xlink:href="#a337af22-9c70-43bd-ac86-0bc2a6bac68d"/><linearGradient id="b891ec49-950c-4446-9777-43919bc336f8" x1="112.09" y1="59.11" x2="141.48" y2="68.09" gradientUnits="userSpaceOnUse"><stop offset="0" stop-color="#fff"/><stop offset="0" stop-color="#fefefe"/><stop offset="0.09" stop-color="#ebeaee"/><stop offset="0.18" stop-color="#dddbe2"/><stop offset="0.29" stop-color="#d4d3db"/><stop offset="0.47" stop-color="#d2d0d9"/><stop offset="1" stop-color="#292e57"/></linearGradient><linearGradient id="f2e252c1-7f93-459d-890d-c587212beddf" x1="75.32" y1="198.5" x2="105.59" y2="213.92" gradientUnits="userSpaceOnUse"><stop offset="0.21" stop-color="#333"/><stop offset="0.9" stop-color="#e0e0e0"/></linearGradient><linearGradient id="eeb9577b-a1eb-44ee-99b8-5bc2521fae31" x1="201.02" y1="82.55" x2="284.81" y2="189.8" xlink:href="#b590379a-9eb7-4b61-a737-f0926a4dfa4d"/><linearGradient id="fe1da808-efce-4be9-a028-9d079931e555" x1="218.14" y1="99.01" x2="285.67" y2="185.44" xlink:href="#b590379a-9eb7-4b61-a737-f0926a4dfa4d"/><linearGradient id="e9456907-11e0-4ff8-af23-22498975be8e" x1="223.98" y1="117.43" x2="275.94" y2="183.95" xlink:href="#b590379a-9eb7-4b61-a737-f0926a4dfa4d"/><linearGradient id="aa50025f-5ffd-40df-ba7d-06df6d421875" x1="222.96" y1="128.16" x2="261.04" y2="176.9" xlink:href="#b590379a-9eb7-4b61-a737-f0926a4dfa4d"/><linearGradient id="f585c227-2233-41ce-b8b5-67114ac206f8" x1="232.9" y1="129.05" x2="248.51" y2="149.02" xlink:href="#b590379a-9eb7-4b61-a737-f0926a4dfa4d"/><radialGradient id="a8382fb3-d95a-42de-8459-557342140706" cx="245.54" cy="134.02" r="8.79" gradientUnits="userSpaceOnUse"><stop offset="0" stop-color="#8c8c8c"/><stop offset="0" stop-color="#1a1a1a"/><stop offset="1"/></radialGradient><radialGradient id="a773ddd5-4c0a-4a67-9c9a-5769d88c5c68" cx="40.46" cy="301.36" r="2.39" xlink:href="#a8382fb3-d95a-42de-8459-557342140706"/><radialGradient id="a6e1dfb8-07ea-43c2-a803-b7f317316288" cx="81.08" cy="228.73" r="3.68" xlink:href="#a8382fb3-d95a-42de-8459-557342140706"/><radialGradient id="bb221fc4-e545-4c52-bcd5-4ccb0328530b" cx="149.37" cy="108.22" r="5.36" xlink:href="#a8382fb3-d95a-42de-8459-557342140706"/><linearGradient id="a39a80a1-3957-4bc0-a491-842023e09bf5" x1="15.65" y1="324.17" x2="2.01" y2="316.91" gradientUnits="userSpaceOnUse"><stop offset="0" stop-color="#a8a8a8"/><stop offset="0.06" stop-color="#92939a"/><stop offset="0.17" stop-color="#727486"/><stop offset="0.28" stop-color="#575b75"/><stop offset="0.41" stop-color="#434767"/><stop offset="0.56" stop-color="#34395e"/><stop offset="0.73" stop-color="#2c3059"/><stop offset="1" stop-color="#292e57"/></linearGradient><linearGradient id="b4213d32-52ba-4487-9bc3-39c2a7284d80" x1="34.37" y1="287.19" x2="18.55" y2="278.77" xlink:href="#a39a80a1-3957-4bc0-a491-842023e09bf5"/><linearGradient id="a052ff90-d552-41c4-9a4a-357e6af5bd52" x1="79.64" y1="199.86" x2="55.9" y2="187.23" xlink:href="#a39a80a1-3957-4bc0-a491-842023e09bf5"/><linearGradient id="a199187a-9de8-482d-90a7-b412e9e617f3" x1="55.9" y1="245.62" x2="35.39" y2="234.72" xlink:href="#a39a80a1-3957-4bc0-a491-842023e09bf5"/><linearGradient id="a33cde88-3fe3-447c-bf55-378c6712b93d" x1="24.53" y1="306.57" x2="9.63" y2="298.64" xlink:href="#a39a80a1-3957-4bc0-a491-842023e09bf5"/><linearGradient id="f813b259-5ccc-4c4f-8b20-2245457e0be8" x1="213.43" y1="193.82" x2="246.66" y2="236.35" xlink:href="#b590379a-9eb7-4b61-a737-f0926a4dfa4d"/><linearGradient id="ba30283a-d8b7-40cc-8145-ba0131af7d2e" x1="135.51" y1="291.96" x2="158.9" y2="321.89" xlink:href="#b590379a-9eb7-4b61-a737-f0926a4dfa4d"/><linearGradient id="fb1ab1df-e1f3-44a5-8ce5-53ea6199be27" x1="150.78" y1="127.29" x2="183.05" y2="168.6" xlink:href="#b590379a-9eb7-4b61-a737-f0926a4dfa4d"/><linearGradient id="f91dd90d-6b4e-4ca5-aa08-9e05fb7743ed" x1="71.88" y1="232.41" x2="101.62" y2="270.48" xlink:href="#b590379a-9eb7-4b61-a737-f0926a4dfa4d"/><linearGradient id="ab0ea7f1-f568-484f-83f9-c47b92f14fea" x1="111.04" y1="203.01" x2="123.6" y2="219.1" xlink:href="#b590379a-9eb7-4b61-a737-f0926a4dfa4d"/><linearGradient id="b917ab98-67be-4024-8628-443ad227df24" x1="165.82" y1="254.72" x2="193.34" y2="289.93" xlink:href="#b590379a-9eb7-4b61-a737-f0926a4dfa4d"/><linearGradient id="ee820377-1ddb-4acd-8ab3-93b35d4799f7" x1="172.6" y1="164.32" x2="213.51" y2="216.69" xlink:href="#aa99c879-4cda-4278-93ad-849e459d37aa"/><linearGradient id="a5ba7b00-0024-4d36-bf2f-79b4b67bf244" x1="89.88" y1="272.8" x2="123.02" y2="315.21" xlink:href="#aa99c879-4cda-4278-93ad-849e459d37aa"/><linearGradient id="a9327dac-35b9-4a29-915e-6d682eed9325" x1="129.67" y1="237.78" x2="158.38" y2="274.53" xlink:href="#aa99c879-4cda-4278-93ad-849e459d37aa"/><linearGradient id="ae20cf72-827b-41ba-a952-b554a4d39ff3" x1="20.36" y1="182.84" x2="83.05" y2="263.08" xlink:href="#e4653ed3-a867-43f7-939c-a033f06829e3"/><linearGradient id="f4c90a18-97e1-4b6e-9e92-61dc54dd838a" x1="81.13" y1="57.51" x2="147.41" y2="142.34" xlink:href="#e4653ed3-a867-43f7-939c-a033f06829e3"/><linearGradient id="aafc6ac5-761b-46aa-ae9f-6de3495b2f8d" x1="6.23" y1="325.14" x2="26.69" y2="351.32" xlink:href="#e4653ed3-a867-43f7-939c-a033f06829e3"/><linearGradient id="b1f7231b-d73a-40aa-bdff-59137953eaaa" x1="131" y1="25.05" x2="161.71" y2="64.36" xlink:href="#b590379a-9eb7-4b61-a737-f0926a4dfa4d"/><linearGradient id="abef9c7a-a797-4851-bfcc-ce60f4a134fd" x1="100.41" y1="94.55" x2="138.67" y2="103.38" xlink:href="#e4653ed3-a867-43f7-939c-a033f06829e3"/><linearGradient id="a72034c6-80cc-4179-85db-348d2f2bc7cd" x1="138.16" y1="43.21" x2="179.15" y2="52.67" xlink:href="#e4653ed3-a867-43f7-939c-a033f06829e3"/></defs><g id="e7a55009-d527-474c-93bb-39bdba4c3c45" data-name="Layer 2"><g id="b01d9ef7-54ce-41d6-b99e-173bc751606e" data-name="ir"><path d="M28.83,333.65S25.64,363,50.61,378c0,0,8.47,9.5,34.72,10.5H95L133.08,369l-62-26Z" fill="url(#aa99c879-4cda-4278-93ad-849e459d37aa)"/><path d="M31.58,347.48s1.5,20,11.5,25.5,14,15,45.5,17c0,0,8,.5,25-11,0,0-7.83-4-9.16-3s-11.34,9-19.09,7.5-18.5-.5-25.62-7S37.21,372.74,31.58,347.48Z" fill="url(#e4653ed3-a867-43f7-939c-a033f06829e3)"/><polygon points="13.36 341.23 33.01 355.98 37.83 366.39 13.36 347.48 13.36 341.23" fill="url(#bebb93c2-caef-4ce4-821b-6c0e9de65f7a)"/><path d="M170.75,323l7.33-8.5s-5.24-6.13,2.77-13.12-15.77,6.12-15.77,6.12S160.42,321,170.75,323Z" fill="url(#be10c47b-ef8c-4f91-b5a7-0ad9462a364a)"/><path d="M173.06,322.42c.91-3.53,2.74-6.94,6-8.82.27-.16.67-.51.53-.88-.81-2.11-.59-4.31-1-6.5-.18-1-2.12-.45-1.93.52.41,2.19.19,4.38,1,6.5l.52-.88c-3.82,2.24-6,6-7,10.18-.12.49.56.71.91.69a1.09,1.09,0,0,0,1.05-.81Z" fill="#ffe35f"/><path d="M20.08,330.55s30,7.21,42,10.43,50.55,34.5,105.55,27.75h0l7.75-7.67,7.16-32.75-3.91-2.83s5.56-21.62,3.91-22.87-31.91-3.38-31.91-3.38L59.71,267.57l-39.63,63" fill="url(#fc2d16bb-df82-47ee-b824-760ebfb8ed6d)"/><path d="M198,35.48l-47.43,69L120.16,88,154.33,4S190.94,14.48,198,35.48Z" stroke="#000" fill="url(#b590379a-9eb7-4b61-a737-f0926a4dfa4d)"/><path d="M200,88.22s-4.83-25.12,0-25.62c0,0,2.79,9.26,10.56,9.13" stroke="#2d0b0b" stroke-width="0.5" fill="url(#a337af22-9c70-43bd-ac86-0bc2a6bac68d)"/><path d="M50.61,295.65S185.9,76.91,189.58,67.81,116.94,166,116.94,166Z" fill="url(#ba6dcf1f-b969-45f5-be76-d5daf4969eaa)"/><polygon points="2.33 349.07 0.33 355.98 4.08 355.98 163.58 102.48 192.08 64.48 198.01 35.48 154.33 99.67 13.79 316.88 2.33 349.07" stroke="#2d0b0b" stroke-width="0.5" fill="url(#b86f70ce-be3f-49b0-a3fa-a6f05dd67265)"/><path d="M92.33,123.73S137.42,6,149.25,2c0,0,4.63-5,11.83,2,0,0-13.5,35.55-23.5,43.77S92.33,125,92.33,125" stroke="#2d0b0b" stroke-width="0.5" fill="url(#b891ec49-950c-4446-9777-43919bc336f8)"/><path d="M196.75,96.6s-4.83-25.12,0-25.62c0,0,2.79,9.26,10.56,9.13" fill="#68605b" stroke="#2d0b0b" stroke-width="0.5"/><path d="M57.71,338.2S99.08,360,117.58,362.48s55.17,1,55.17,1l-7.17,7.5s-43-2.5-54-5-51.87-20.5-51.87-20.5Z" fill="#7a7a70" stroke="#2d0b0b" stroke-width="0.5"/><path d="M67.77,301.36s-.08,49.62,56.37,39.87C124.14,341.23,80.46,340.73,67.77,301.36Z" fill="#7a7a70" stroke="#2d0b0b" stroke-width="0.5"/><path d="M161.08,328.31l9.67-6.38s-1-4.95-4.83-7.54c-15.78-10.65-11.59,7.54-11.59,7.54S154.58,327.65,161.08,328.31Z" fill="#7a7a70" stroke="#2d0b0b" stroke-width="0.5"/><polyline points="32.33 319.23 41.58 311.23 161.08 105.02 139.59 87.98 88.58 188.3 80.18 188.98 28.83 307.48 31.08 319.23" stroke="#2d0b0b" stroke-width="0.5" fill="url(#f2e252c1-7f93-459d-890d-c587212beddf)"/><path d="M208.75,71s15.58-12.5,46,27c31.82,41.27-53.17-10.2-53.17-10.2Z" fill="#ffe35f" stroke="#fff" stroke-width="0.5"/><path d="M296.08,181s9.5-10.58-8.5-37.92S252.33,93.23,241.46,84s-18.88-12.35-25.88-11.25-8,7.8-10.79,12.5C199.83,93.48,223.83,239.48,296.08,181Z" stroke="#2d0b0b" stroke-width="0.5" fill="url(#eeb9577b-a1eb-44ee-99b8-5bc2521fae31)"/><path d="M287.58,183.94s10.25-25-30.75-59c0,0-22.36-21.09-46.43-19.92C210.4,105.06,245.08,188.41,287.58,183.94Z" stroke="#2d0b0b" stroke-width="0.5" fill="url(#fe1da808-efce-4be9-a028-9d079931e555)"/><path d="M277.73,182.55s2.19-38.7-58.85-61.14C218.88,121.41,246.63,182.38,277.73,182.55Z" stroke="#2d0b0b" stroke-width="0.5" fill="url(#e9456907-11e0-4ff8-af23-22498975be8e)"/><path d="M263.44,175s0-25.43-37.86-45.8C209.29,120.46,245.44,189,263.44,175Z" stroke="#2d0b0b" stroke-width="0.5" fill="url(#aa50025f-5ffd-40df-ba7d-06df6d421875)"/><path d="M68.08,267s-10.66,82.67,76.67,66l56-48.67s16-27.33,17.33-30.66l78-72.67s-19.33,18-60.66-34c0,0-30.67-42-30.67-62a27.67,27.67,0,0,0,4-14L131.12,189l-25.27,18.27Z" fill="#68605b" stroke="#2d0b0b" stroke-width="0.5"/><path d="M244.08,152.48l8.75-9s-15.72-.5-16-17.5l-6.75,8.75S238.58,149.73,244.08,152.48Z" stroke="#2d0b0b" stroke-width="0.5" fill="url(#f585c227-2233-41ce-b8b5-67114ac206f8)"/><path d="M237.33,125s15.75,6.25,16.75,18C254.08,143,234.24,145.33,237.33,125Z" stroke="#2d0b0b" stroke-width="0.5" fill="url(#a8382fb3-d95a-42de-8459-557342140706)"/><path d="M252.83,143.48c-1.7,2.43-4.2,1.34-10.18-2.87s-7.74-12.12-6-14.55,4.95.12,10.94,4.33S254.54,141.05,252.83,143.48Z" fill="none" stroke="#fff" stroke-width="0.5"/><polygon points="37.83 301.48 38.12 300.96 39.08 299.23 43.08 301.48 40.46 303.48 37.83 301.48" stroke="#2d0b0b" stroke-width="0.5" fill="url(#a773ddd5-4c0a-4a67-9c9a-5769d88c5c68)"/><polygon points="76.83 229.65 79.18 225.73 85.33 227.69 84.36 231.73 76.83 229.65" stroke="#2d0b0b" stroke-width="0.5" fill="url(#a6e1dfb8-07ea-43c2-a803-b7f317316288)"/><polygon points="144.42 108.73 146.58 102.48 154.33 105.61 149.58 113.95 144.42 108.73" stroke="#2d0b0b" stroke-width="0.5" fill="url(#bb221fc4-e545-4c52-bcd5-4ccb0328530b)"/><polygon points="11.08 301.48 0.33 352.98 11.08 331.98 17.33 288.1 11.08 301.48" stroke="#fff" stroke-width="0.5" fill="url(#a39a80a1-3957-4bc0-a491-842023e09bf5)"/><polygon points="17.33 319.23 22.83 274.23 35.58 246.73 31.83 291.67 17.33 319.23" stroke="#fff" stroke-width="0.5" fill="url(#b4213d32-52ba-4487-9bc3-39c2a7284d80)"/><polyline points="60.23 188.12 57.71 241.11 75.84 206.6 77.83 145.98 60.23 188.12" stroke="#fff" stroke-width="0.5" fill="url(#a052ff90-d552-41c4-9a4a-357e6af5bd52)"/><polygon points="35.58 246.48 59.71 188.98 57.58 241.13 31.58 291.36 35.58 246.48" stroke="#fff" stroke-width="0.5" fill="url(#a199187a-9de8-482d-90a7-b412e9e617f3)"/><polygon points="12.08 329.98 16.33 321.23 22.08 275.23 17.33 289.73 12.08 329.98" stroke="#fff" stroke-width="0.5" fill="url(#a33cde88-3fe3-447c-bf55-378c6712b93d)"/><path d="M169.75,251.65s22.33,18,46,8.85c0,0,62-64.06,78.33-77.19,0,0-21,4.67-41.85-19.8Z" fill="url(#f813b259-5ccc-4c4f-8b20-2245457e0be8)"/><path d="M99.42,333.65l44.44-48.22s17.56,12.88,55.22,0l-55.22,48.22S125.75,346,99.42,333.65Z" fill="url(#ba30283a-d8b7-40cc-8145-ba0131af7d2e)"/><path d="M209.42,101.31,129.75,210.25s-3.67-3.94,0-13.6l74.33-111S203.45,90.39,209.42,101.31Z" fill="url(#fb1ab1df-e1f3-44a5-8ce5-53ea6199be27)"/><path d="M69.42,295.65s28-57,34.66-61.67c0,0-2.33-19.13,0-26.73,0,0-38.66,65.4-39.33,67.06S66.42,291,69.42,295.65Z" fill="url(#f91dd90d-6b4e-4ca5-aa08-9e05fb7743ed)"/><path d="M102.76,209.48,131.12,189s-3.37,12.2-1.37,18.27-23.37,20.07-25,26.06S102.76,209.48,102.76,209.48Z" fill="url(#ab0ea7f1-f568-484f-83f9-c47b92f14fea)"/><path d="M144.42,285.43l25.33-33.78s20.67,19,46,8.85c0,0-9.54,18.71-16.67,24.93S153.42,294.22,144.42,285.43Z" fill="url(#b917ab98-67be-4024-8628-443ad227df24)"/><path d="M142.08,229.65,223,125s25.39,38.43,29.24,38.56,0,.8,0,.8l-83.46,87.34S144.75,235.65,142.08,229.65Z" fill="url(#ee820377-1ddb-4acd-8ab3-93b35d4799f7)"/><path d="M82.68,320s8.63-39.63,31-65.84c0,0,10.6,22.7,30.16,31.24L99.42,333.65S98.29,332.37,82.68,320Z" fill="url(#a5ba7b00-0024-4d36-bf2f-79b4b67bf244)"/><path d="M140.08,229.65,113.7,254.19s12.72,25.7,30.72,31.24L170.75,251S153.21,244.79,140.08,229.65Z" fill="url(#a9327dac-35b9-4a29-915e-6d682eed9325)"/><polygon points="83.33 133.65 79.08 190.23 77.33 198.23 82.68 196.48 82.68 198.23 77.33 201.98 20.08 312.28 74.58 201.98 77.83 148.98 39.08 236.23 83.33 133.65" stroke="#fff" stroke-width="0.5" fill="url(#ae20cf72-827b-41ba-a952-b554a4d39ff3)"/><polygon points="79.18 188.98 88.58 188.3 92.58 128.45 146.12 9.75 146.12 6.73 92.33 123.73 85.08 128.45 83.33 133.65 79.18 188.98" stroke="#fff" stroke-width="0.5" fill="url(#f4c90a18-97e1-4b6e-9e92-61dc54dd838a)"/><polygon points="4.08 368.98 32.33 319.23 28.83 307.48 2.33 356.48 4.08 368.98" stroke="#fff" stroke-width="0.5" fill="url(#aafc6ac5-761b-46aa-ae9f-6de3495b2f8d)"/><polygon points="145.12 77.31 149.58 14.65 146.45 12.98 145.12 77.31" stroke="#2d0b0b" stroke-width="0.5" fill="url(#b1f7231b-d73a-40aa-bdff-59137953eaaa)"/><polygon points="88.58 188.3 144.42 78.48 146.58 8.73 92.58 128.45 88.58 188.3" stroke="#fff" stroke-width="0.5" fill="url(#abef9c7a-a797-4851-bfcc-ce60f4a134fd)"/><polygon points="149.25 3.98 189.58 7.48 187.08 13.48 145.58 92.53 181.88 17.23 172.05 11.72 146.58 6.73 149.25 3.98" stroke="#fff" stroke-width="0.5" fill="url(#a72034c6-80cc-4179-85db-348d2f2bc7cd)"/><path d="M209.42,101.31s44,87,81.33,82.34" fill="none" stroke="#fff" stroke-width="0.5"/><path d="M104.08,229.65s18.67,84,94.67,56" fill="none" stroke="#fff" stroke-width="0.5"/><line x1="252.23" y1="163.51" x2="170.75" y2="250.98" fill="none" stroke="#ffe35f"/><line x1="104.42" y1="328.31" x2="143.86" y2="285.43" fill="none" stroke="#ffe35f"/><line x1="74.08" y1="338.2" x2="92.33" y2="332.98" fill="none" stroke="#ffe35f"/><line x1="104.42" y1="335.59" x2="107.08" y2="352.98" fill="none" stroke="#ffe35f"/><line x1="138.08" y1="358.48" x2="134.09" y2="338.58" fill="none" stroke="#ffe35f"/><line x1="157.37" y1="352.98" x2="144.75" y2="332.98" fill="none" stroke="#ffe35f"/><path d="M151.55,334.87v-1.5a.25.25,0,0,0,0-.22.31.31,0,0,0-.17-.17,1.15,1.15,0,0,0-.64-.09,1.73,1.73,0,0,0-.73.26l-.17.13a.67.67,0,0,0-.19.31v1.5a.29.29,0,0,0,0,.22.35.35,0,0,0,.17.17,1.2,1.2,0,0,0,.65.09,1.69,1.69,0,0,0,.72-.26l.18-.13a.65.65,0,0,0,.18-.31Z" fill="#fff"/><path d="M130.12,345.74a58.23,58.23,0,0,0,.37,7.7,13.52,13.52,0,0,0,.88,3.61,8.59,8.59,0,0,0,2.25,2.77c1.47,1.34,3.33,2.3,5.28,1.3,1.44-.74,2.09-2.36,2.63-3.8.66-1.77,1.09-3.95,2.44-5.35l-1.85.27a7,7,0,0,0,2.69,4.81,6.26,6.26,0,0,0,5.64.27c.27-.1.74-.37.53-.7s-1-.06-1.26,0c-3.24,1.14-5.24-2.19-5.67-4.92-.11-.67-1.64,0-1.86.27-2.16,2.24-1.89,5.92-3.91,8.22a1.57,1.57,0,0,1-.46.39c.27-.11,0-.05-.24-.1a6.11,6.11,0,0,1-2.43-1.66,7.3,7.3,0,0,1-2-2.65,15.06,15.06,0,0,1-.74-3.27,58.23,58.23,0,0,1-.37-7.7c0-.51-1.93-.17-1.93.52Z" fill="#fff"/><path d="M126.6,338.54V343a.77.77,0,0,0,.91.7c.4,0,1-.32,1-.82v-4.5a.77.77,0,0,0-.91-.7c-.4,0-1.05.32-1.05.82Z" fill="#fff"/><path d="M80.82,340c1.12.57,2.08,1.59,3.4,1.61a1.64,1.64,0,0,0,.76-.14,1.09,1.09,0,0,0,.51-.41.39.39,0,0,0,0-.46.74.74,0,0,0-.53-.21h-.19c-.1,0,.19,0,.09,0l-.08,0-.19-.05-.09,0,.06,0a6.58,6.58,0,0,1-.74-.4,16.05,16.05,0,0,0-1.46-.91,1.41,1.41,0,0,0-1.37.15.73.73,0,0,0-.36.45.41.41,0,0,0,.21.4Z" fill="#fff"/><path d="M45.68,336.35a28.07,28.07,0,0,0,5,6,33.79,33.79,0,0,1,4.49,4.54c.38.51,2.25-.15,1.8-.74a33.22,33.22,0,0,0-4.49-4.54,28.32,28.32,0,0,1-5-6c-.32-.52-2.21.09-1.8.74Z" fill="#fff"/><path d="M66.19,341.38a50.21,50.21,0,0,0,5,5,1.18,1.18,0,0,0,1.3.09c.25-.13.82-.56.48-.89a52.44,52.44,0,0,1-5-5c-.46-.62-2.32.09-1.78.8Z" fill="#fff"/><path d="M91.29,353.37a24.74,24.74,0,0,1,3.38,1.45,1.68,1.68,0,0,0,1.26-.09,1.3,1.3,0,0,0,.53-.31c.06-.06.16-.21,0-.28a28.15,28.15,0,0,0-3.62-1.55,1.44,1.44,0,0,0-.62,0,2.7,2.7,0,0,0-.73.23c-.2.11-.64.41-.23.55Z" fill="#fff"/><path d="M105.69,362.45a16.55,16.55,0,0,1,5.11.45,1.85,1.85,0,0,0,1.36-.21c.2-.11.64-.49.2-.63a19.05,19.05,0,0,0-5.88-.55,1.76,1.76,0,0,0-1.28.5c-.29.35.24.44.49.44Z" fill="#fff"/><path d="M102.43,357.84l-.29,0h-.07a4.34,4.34,0,0,1-.47-.16l.19.08c-.51-.22-1-.54-1.45-.78a1.13,1.13,0,0,0-.65-.12,1.46,1.46,0,0,0-.73.26c-.15.11-.34.27-.35.47a.42.42,0,0,0,.22.43c.43.22.84.49,1.28.71a3.67,3.67,0,0,0,1.62.41,1.77,1.77,0,0,0,.76-.14,1.11,1.11,0,0,0,.51-.42.44.44,0,0,0,0-.49.76.76,0,0,0-.54-.23Z" fill="#fff"/><path d="M25.52,333.1c2.7.54,5.37,1.22,8.05,1.88s5.5,1.16,8.18,2c5,1.6,9.69,3.73,15,4.15.89.07,2-1.22.69-1.32-5.28-.42-10-2.63-14.94-4.18-2.55-.79-5.19-1.25-7.78-1.89s-5.35-1.34-8.06-1.89a1.41,1.41,0,0,0-1.37.37c-.23.31-.24.77.24.87Z" fill="#00385f"/><path d="M168.71,365.47c5.25-1.07,7.86-6.76,9.47-11.3,2.23-6.29,3.34-12.94,4.4-19.5.45-2.77.83-5.57,1.47-8.31.06-.24-.18-.36-.38-.41-4.78-1.22-3.77-8.06-3.15-11.64.45-2.66,1.11-5.28,1.76-7.89a40.53,40.53,0,0,0,1.27-6.06c.07-.79-1.87-.43-1.93.24a44.93,44.93,0,0,1-1.4,6.57,84.09,84.09,0,0,0-1.81,8.48c-.6,4.08-.95,10.08,4.08,11.36l-.37-.41c-1.19,5.11-1.74,10.37-2.73,15.53-1.14,6-2.44,12.37-5.58,17.66-1.22,2.06-2.89,4.19-5.36,4.7-1.18.24-.9,1.22.26,1Z" fill="#00385f"/><path d="M66.16,268.37c-2.78,8.46-2.07,17.95-.15,26.52,2.11,9.35,6,18.8,12.46,26A29,29,0,0,0,90,329.13c.82.3,2.27-.88,1.12-1.3-8.22-3-14-10.51-17.77-18.07a66.62,66.62,0,0,1-7-27.49A40,40,0,0,1,68,268.59c.34-1.06-1.58-1-1.85-.22Z" fill="#00385f"/><path d="M49.51,372.06c8.46,2.25,16.43,6,24.89,8.26a38.94,38.94,0,0,0,11.39,1.59,56.79,56.79,0,0,0,10.36-1.67,51.07,51.07,0,0,1,13.07-1.65c.39,0,1.12-.13,1.27-.55s-.13-.66-.55-.67a46,46,0,0,0-11,1.07c-3.43.71-6.82,1.64-10.31,2.05-8.25,1-16.37-2.12-24-4.9-4.63-1.69-9.24-3.42-14-4.69-.7-.18-2.28.86-1.15,1.16Z" fill="#00385f"/><path d="M126.38,242.71c5.49-5,12.05-8.81,16.78-14.58,2.48-3,4.87-6.1,7.44-9,2.82-3.24,5.65-6.47,8.28-9.87.73-.94-1.11-1.09-1.59-.46-2.63,3.4-5.46,6.62-8.28,9.86-2.57,3-5,6-7.44,9.06-4.73,5.76-11.29,9.63-16.78,14.58-.35.31-.13.68.22.83a1.46,1.46,0,0,0,1.37-.37Z" fill="#00385f"/><path d="M134.7,220.91c6.49,9.18,14.08,19.34,24.83,23.73.83.34,2.25-.86,1.11-1.32-5.31-2.17-9.79-6-13.69-10.11a117.44,117.44,0,0,1-10.48-13.16c-.52-.73-2.36,0-1.77.86Z" fill="#00385f"/></g></g></svg>